<?xml version="1.0" encoding="iso-8859-1"?>
<!-- Uploaded to: SVG Repo, www.svgrepo.com, Generator: SVG Repo Mixer Tools -->
<svg height="800px" width="800px" version="1.1" id="Capa_1" xmlns="http://www.w3.org/2000/svg" xmlns:xlink="http://www.w3.org/1999/xlink" 
	 viewBox="0 0 30.856 30.856" xml:space="preserve">
<g>
	<path style="fill:#030104;" d="M28.043,17.485l-0.866-0.865c-0.157-0.16-0.419-0.16-0.576,0l-4.804,4.803l-2.473-2.49
		c-0.16-0.162-0.418-0.162-0.576,0l-0.867,0.865c-0.16,0.158-0.16,0.416,0,0.576l3.625,3.652c0.158,0.156,0.414,0.156,0.577,0
		l5.96-5.961C28.203,17.904,28.203,17.646,28.043,17.485z"/>
	<path style="fill:#030104;" d="M3.408,6.122c0.539,0,0.976-0.434,0.976-0.969c0-0.539-0.437-0.977-0.976-0.977
		c-0.535,0-0.972,0.438-0.972,0.977C2.437,5.688,2.873,6.122,3.408,6.122z"/>
	<path style="fill:#030104;" d="M6.332,6.122c0.537,0,0.976-0.434,0.976-0.969c0-0.539-0.438-0.977-0.976-0.977
		c-0.539,0-0.975,0.438-0.975,0.977C5.357,5.688,5.793,6.122,6.332,6.122z"/>
	<path style="fill:#030104;" d="M9.315,6.122c0.536,0,0.973-0.434,0.973-0.969c0-0.539-0.437-0.977-0.973-0.977
		C8.777,4.177,8.34,4.614,8.34,5.153C8.34,5.688,8.777,6.122,9.315,6.122z"/>
	<path style="fill:#030104;" d="M22.919,12.271c0.839,0,1.647,0.133,2.405,0.375V7.604H1.949v16.539h14.088
		c-0.666-1.16-1.053-2.506-1.053-3.936C14.984,15.833,18.547,12.271,22.919,12.271z"/>
	<path style="fill:#030104;" d="M26.954,25.203c-0.429,0.346-0.905,0.637-1.415,0.865C26.129,26.002,26.643,25.679,26.954,25.203z"
		/>
	<path style="fill:#030104;" d="M27.269,13.578V4.662c0-1.076-0.873-1.949-1.945-1.949H1.949C0.871,2.714,0,3.587,0,4.662v19.48
		c0,1.074,0.871,1.947,1.949,1.947h15.663c1.405,1.271,3.267,2.053,5.307,2.053c4.378,0,7.937-3.561,7.937-7.936
		C30.855,17.437,29.427,14.997,27.269,13.578z M9.315,4.177c0.536,0,0.973,0.438,0.973,0.977c0,0.535-0.437,0.969-0.973,0.969
		c-0.538,0-0.976-0.434-0.976-0.969C8.34,4.614,8.777,4.177,9.315,4.177z M6.332,4.177c0.537,0,0.976,0.438,0.976,0.977
		c0,0.535-0.438,0.969-0.976,0.969c-0.539,0-0.975-0.434-0.975-0.969C5.357,4.614,5.793,4.177,6.332,4.177z M3.408,4.177
		c0.539,0,0.976,0.438,0.976,0.977c0,0.535-0.437,0.969-0.976,0.969c-0.535,0-0.972-0.434-0.972-0.969
		C2.437,4.614,2.873,4.177,3.408,4.177z M1.949,24.144V7.604h23.375v5.041c-0.758-0.242-1.566-0.375-2.405-0.375
		c-4.372,0-7.935,3.562-7.935,7.938c0,1.43,0.387,2.775,1.053,3.936L1.949,24.144L1.949,24.144z M26.954,25.203
		c-0.312,0.475-0.825,0.799-1.415,0.865c-0.801,0.357-1.686,0.562-2.62,0.562c-0.913,0-1.782-0.193-2.573-0.541
		c-0.983-0.434-1.837-1.105-2.49-1.947c-0.85-1.088-1.361-2.449-1.361-3.936c0-3.543,2.883-6.426,6.425-6.426
		c0.85,0,1.661,0.172,2.405,0.473c0.725,0.293,1.38,0.717,1.944,1.238c1.272,1.174,2.075,2.852,2.075,4.715
		C29.344,22.223,28.412,24.026,26.954,25.203z"/>
</g>
</svg>