<?xml version="1.0" encoding="UTF-8"?>
<!DOCTYPE svg PUBLIC "-//W3C//DTD SVG 1.1//EN" "http://www.w3.org/Graphics/SVG/1.1/DTD/svg11.dtd">
<!-- Creator: CorelDRAW X7 -->
<svg xmlns="http://www.w3.org/2000/svg" xml:space="preserve" width="88.9mm" height="38.1mm" version="1.1" style="shape-rendering:geometricPrecision; text-rendering:geometricPrecision; image-rendering:optimizeQuality; fill-rule:evenodd; clip-rule:evenodd"
viewBox="0 0 8890 3810"
 xmlns:xlink="http://www.w3.org/1999/xlink">
 <defs>
  <style type="text/css">
   <![CDATA[
    .fil0 {fill:#ED3237}
   ]]>
  </style>
 </defs>
 <g id="Layer_x0020_1">
  <metadata id="CorelCorpID_0Corel-Layer"/>
  <g id="_2356395088064">
   <path class="fil0" d="M6670 5314c-600,395 -1009,665 -1609,1060 0,0 812,2047 3037,1648 860,-143 1578,-584 2090,-1192 1381,-1636 1005,-4027 -543,-5381 -841,-736 -1964,-1107 -3164,-975 -1383,151 -2719,903 -3439,1970 1630,-971 3868,-1551 5427,-175 622,550 1044,1327 1030,2186 -27,1580 -1927,2587 -2829,859z"/>
   <path class="fil0" d="M5252 -741c642,322 1080,541 1722,862 0,0 1367,-1728 -93,-3454 -555,-674 -1296,-1074 -2078,-1213 -2109,-376 -3989,1147 -4387,3165 -216,1096 26,2254 741,3227 823,1120 2143,1901 3427,1990 -1657,-925 -3280,-2572 -2868,-4610 164,-814 625,-1568 1376,-1986 1381,-768 3204,373 2160,2019z"/>
   <path class="fil0" d="M714 3527c-44,-717 -75,-1206 -120,-1923 0,0 -2180,-312 -2939,1818 -304,818 -277,1659 -5,2405 735,2013 2997,2873 4941,2203 1056,-365 1936,-1156 2418,-2262 555,-1275 567,-2809 -2,-3963 34,1897 -576,4128 -2544,4796 -786,267 -1670,248 -2409,-192 -1357,-808 -1288,-2957 660,-2882z"/>
  </g>
 </g>
</svg>
