<?xml version="1.0" encoding="UTF-8"?>
<svg version="1.1" xmlns="http://www.w3.org/2000/svg" width="327" height="313">
<path d="M0 0 C0 0.66 0 1.32 0 2 C0.66 2 1.32 2 2 2 C13.31724685 13.75056486 18.82511033 27.2617966 19.4375 43.5 C19.18774834 53.21652878 16.65193898 62.08946764 11 70 C10.55398437 70.67804688 10.10796875 71.35609375 9.6484375 72.0546875 C2.25530233 82.62278869 -7.5908359 88.41915944 -20 91.25 C-32.38719781 93.39171177 -43.89274994 91.73907031 -54.35546875 84.5 C-56 83 -56 83 -57 80 C-57.8971875 79.62875 -57.8971875 79.62875 -58.8125 79.25 C-62.15830552 77.33811113 -63.51481746 74.48301693 -65 71 C-65.5625 68.3125 -65.5625 68.3125 -65 66 C-61.52045519 62.9498727 -57.73373422 60.41847644 -53.875 57.875 C-52.84117187 57.19179687 -51.80734375 56.50859375 -50.7421875 55.8046875 C-49.38480469 54.91136719 -49.38480469 54.91136719 -48 54 C-47.01 53.34 -46.02 52.68 -45 52 C-41.86528929 52.16342094 -40.44661357 52.56110329 -38.19140625 54.77734375 C-37.65386719 55.49019531 -37.11632812 56.20304687 -36.5625 56.9375 C-33.63354196 60.46743215 -31.7037122 62.31404197 -27 63 C-22.38632722 62.67045194 -18.33386292 61.58555961 -14 60 C-14 59.34 -14 58.68 -14 58 C-13.34 58 -12.68 58 -12 58 C-12 57.34 -12 56.68 -12 56 C-11.34 56 -10.68 56 -10 56 C-5.85600077 44.74083228 -5.17317023 37.28565355 -10 26 C-16.33437533 15.48962908 -24.8364072 9.70176047 -36.28125 5.9140625 C-40.23922364 4.94119923 -43.94826579 4.61558721 -48 4.625 C-48.73549072 4.62661133 -49.47098145 4.62822266 -50.22875977 4.62988281 C-62.37227341 4.89571357 -73.53365175 9.25174056 -84.5234375 14.1171875 C-87 15 -87 15 -91 15 C-90.46876874 8.40704058 -87.61098303 6.23440258 -82.76953125 2.11328125 C-79.68019721 -0.24402441 -76.56755371 -2.17591088 -73.10546875 -3.9296875 C-70.91514978 -5.00244536 -70.91514978 -5.00244536 -68.62109375 -6.5 C-48.03785435 -18.27937992 -18.06731386 -14.63821143 0 0 Z " fill="#DE2321" transform="translate(241,159)"/>
<path d="M0 0 C0.7425 0.433125 1.485 0.86625 2.25 1.3125 C11.72071531 7.19970141 18.10662727 15.20930707 21.61328125 25.86328125 C23.47298941 36.13863847 22.73288958 49.02521536 16.73828125 57.859375 C13.94704071 59.69093059 12.31497832 59.44980892 9 59 C5.61806188 57.73755665 2.41564628 56.17290757 -0.8125 54.5625 C-1.68326172 54.14162109 -2.55402344 53.72074219 -3.45117188 53.28710938 C-9.81102774 50.18897226 -9.81102774 50.18897226 -11 49 C-10.9140625 47.00390625 -10.9140625 47.00390625 -10.625 44.5625 C-10.53476563 43.75941406 -10.44453125 42.95632812 -10.3515625 42.12890625 C-10 40 -10 40 -9 38 C-9.0237904 35.68892122 -9.0237904 35.68892122 -9.3125 33.125 C-9.39113281 32.26132813 -9.46976562 31.39765625 -9.55078125 30.5078125 C-10.00746217 27.95834162 -10.62347618 26.18681798 -12 24 C-14.32854463 22.80161791 -14.32854463 22.80161791 -17 22 C-17.76957031 21.65839844 -18.53914063 21.31679687 -19.33203125 20.96484375 C-24.87079685 18.96180553 -31.46720444 19.06767029 -36.9375 21.3125 C-39.4993823 22.72414943 -41.70062261 24.21159536 -44 26 C-44.66 26 -45.32 26 -46 26 C-46.66 27.32 -47.32 28.64 -48 30 C-48.66 30 -49.32 30 -50 30 C-50.28746094 30.721875 -50.57492188 31.44375 -50.87109375 32.1875 C-51.5833614 33.96200763 -52.30364744 35.73333722 -53.03515625 37.5 C-53.37417969 38.325 -53.71320313 39.15 -54.0625 40 C-54.40410156 40.825 -54.74570313 41.65 -55.09765625 42.5 C-58.88522552 52.99369841 -56.98447816 62.83225137 -53 73 C-52.00905743 74.67206776 -51.0110547 76.34001621 -50 78 C-50 78.66 -50 79.32 -50 80 C-49.34 80 -48.68 80 -48 80 C-46.4921875 81.6796875 -46.4921875 81.6796875 -44.875 83.875 C-44.33617187 84.59429687 -43.79734375 85.31359375 -43.2421875 86.0546875 C-42 88 -42 88 -42 90 C-41.44054687 90.25007813 -40.88109375 90.50015625 -40.3046875 90.7578125 C-37.62852516 92.20021864 -35.46892748 93.93998199 -33.125 95.875 C-30.28965597 98.20283423 -27.54923656 100.35097742 -24.375 102.1875 C-23.59125 102.785625 -22.8075 103.38375 -22 104 C-21.8515625 106.61328125 -21.8515625 106.61328125 -22 109 C-38.23852935 108.92358339 -51.36578197 100.36519937 -62.6328125 89.44921875 C-74.69382337 76.65180953 -79.4560996 61.87347375 -79.21484375 44.55859375 C-78.78951793 31.68522271 -72.89218653 19.27296027 -64 10 C-63.34 10 -62.68 10 -62 10 C-61.74863281 9.40058594 -61.49726563 8.80117187 -61.23828125 8.18359375 C-56.93563899 0.59628453 -45.76932776 -2.47396209 -38 -5 C-25.51860296 -8.19523764 -11.05998918 -6.56686857 0 0 Z " fill="#DF2321" transform="translate(190,85)"/>
<path d="M0 0 C0.4140625 2.921875 0.4140625 2.921875 0.625 6.75 C0.68192017 7.74978882 0.68192017 7.74978882 0.73999023 8.76977539 C1.07458659 15.17869925 1.09737862 21.58383085 1 28 C0.21496094 28.14695313 -0.57007813 28.29390625 -1.37890625 28.4453125 C-8.16316043 29.89372996 -13.52886196 31.44363428 -18 37 C-19.94956782 42.84870347 -19.51264169 47.37027262 -17 52.875 C-16.62875 53.61492187 -16.2575 54.35484375 -15.875 55.1171875 C-15 57 -15 57 -15 59 C-14.443125 59.27714844 -13.88625 59.55429688 -13.3125 59.83984375 C-11.72499827 60.63627621 -10.1418596 61.44144722 -8.5625 62.25390625 C-7.716875 62.68574219 -6.87125 63.11757812 -6 63.5625 C-5.154375 63.99691406 -4.30875 64.43132812 -3.4375 64.87890625 C5.05448401 68.78467454 15.18828334 68.03207186 23.8125 64.9375 C32.32987208 61.26496685 38.25410088 56.13884437 44 49 C44.66 49 45.32 49 46 49 C46.37125 47.8553125 46.37125 47.8553125 46.75 46.6875 C47.44057608 44.65030056 48.14688122 42.61748379 48.91796875 40.609375 C53.20852115 29.36516871 55.3458097 17.89070913 57 6 C58.32 5.67 59.64 5.34 61 5 C67.34243449 21.26972326 67.04502701 40.22213956 60.62890625 56.47265625 C53.99733848 71.08755021 43.2794946 82.22185652 28.12890625 88.1171875 C25.75824506 88.85691833 23.42779034 89.48281227 21 90 C19.88238281 90.27070313 19.88238281 90.27070313 18.7421875 90.546875 C3.98945379 92.98464866 -12.15241229 91.08762489 -24.734375 82.671875 C-25.48203125 82.12015625 -26.2296875 81.5684375 -27 81 C-27.76828125 80.44828125 -28.5365625 79.8965625 -29.328125 79.328125 C-38.02477691 72.40630001 -44.1917953 61.99704482 -46 51 C-47.25960931 38.11860465 -46.61448353 24.93891205 -38.8125 14.125 C-30.60424145 4.60412015 -13.16163775 -6.58081888 0 0 Z " fill="#DF2321" transform="translate(118,162)"/>
</svg>
